<svg width="1472" height="4466" viewBox="0 0 1472 4466" fill="none" xmlns="http://www.w3.org/2000/svg" xmlns:xlink="http://www.w3.org/1999/xlink">
<path d="M616.253,2678.784L611.871,2687.784L616.253,2678.784ZM820.587,4287.064L824.245,4296.364L824.653,4296.204L825.047,4296.024L820.587,4287.064ZM410.527,4459.044C415.667,4457.024 418.195,4451.224 416.175,4446.084C414.153,4440.944 408.349,4438.404 403.209,4440.424L410.527,4459.044ZM429.901,4429.924C424.761,4431.964 422.231,4437.764 424.253,4442.904C426.273,4448.044 432.079,4450.564 437.219,4448.544L429.901,4429.924ZM463.911,4438.044C469.049,4436.024 471.579,4430.224 469.557,4425.084C467.537,4419.944 461.731,4417.424 456.591,4419.444L463.911,4438.044ZM483.283,4408.944C478.143,4410.964 475.615,4416.764 477.635,4421.904C479.657,4427.044 485.461,4429.584 490.601,4427.564L483.283,4408.944ZM517.293,4417.064C522.433,4415.044 524.961,4409.244 522.941,4404.104C520.919,4398.964 515.115,4396.424 509.975,4398.444L517.293,4417.064ZM536.667,4387.964C531.527,4389.984 528.999,4395.784 531.019,4400.924C533.039,4406.064 538.845,4408.584 543.985,4406.564L536.667,4387.964ZM570.677,4396.064C575.817,4394.044 578.345,4388.244 576.323,4383.104C574.303,4377.964 568.497,4375.444 563.357,4377.464L570.677,4396.064ZM590.049,4366.964C584.909,4368.984 582.381,4374.784 584.403,4379.924C586.423,4385.064 592.227,4387.604 597.367,4385.584L590.049,4366.964ZM624.059,4375.084C629.199,4373.064 631.727,4367.264 629.707,4362.124C627.685,4356.984 621.881,4354.444 616.741,4356.464L624.059,4375.084ZM643.433,4345.984C638.293,4348.004 635.765,4353.804 637.785,4358.944C639.807,4364.084 645.611,4366.604 650.751,4364.584L643.433,4345.984ZM677.443,4354.104C682.583,4352.064 685.111,4346.264 683.089,4341.124C681.069,4335.984 675.263,4333.464 670.125,4335.484L677.443,4354.104ZM696.815,4324.984C691.675,4327.004 689.147,4332.804 691.169,4337.944C693.189,4343.084 698.995,4345.624 704.133,4343.604L696.815,4324.984ZM730.825,4333.104C735.965,4331.084 738.493,4325.284 736.473,4320.144C734.451,4315.004 728.647,4312.464 723.507,4314.484L730.825,4333.104ZM750.199,4304.004C745.059,4306.024 742.531,4311.824 744.551,4316.964C746.573,4322.104 752.377,4324.624 757.517,4322.604L750.199,4304.004ZM784.209,4312.124C789.349,4310.104 791.877,4304.284 789.855,4299.144C787.835,4294.004 782.031,4291.484 776.891,4293.504L784.209,4312.124ZM803.581,4283.004C798.443,4285.024 795.913,4290.824 797.935,4295.964C799.955,4301.104 805.761,4303.644 810.901,4301.624L803.581,4283.004ZM838.673,4289.164C843.599,4286.664 845.569,4280.664 843.073,4275.724C840.577,4270.804 834.559,4268.824 829.633,4271.324L838.673,4289.164ZM856.397,4257.544C851.507,4260.104 849.619,4266.144 852.185,4271.044C854.749,4275.924 860.793,4277.804 865.685,4275.244L856.397,4257.544ZM892.399,4261.004C897.253,4258.364 899.055,4252.304 896.421,4247.444C893.787,4242.584 887.717,4240.784 882.863,4243.424L892.399,4261.004ZM909.283,4228.844C904.469,4231.544 902.757,4237.644 905.461,4242.444C908.167,4247.264 914.263,4248.984 919.077,4246.284L909.283,4228.844ZM945.369,4231.244C950.143,4228.464 951.761,4222.344 948.985,4217.584C946.207,4212.804 940.087,4211.184 935.313,4213.964L945.369,4231.244ZM961.253,4198.604C956.523,4201.444 955.001,4207.604 957.851,4212.324C960.703,4217.064 966.849,4218.584 971.579,4215.724L961.253,4198.604ZM997.449,4199.844C1002.131,4196.924 1003.555,4190.744 1000.627,4186.064C997.699,4181.384 991.529,4179.964 986.847,4182.884L997.449,4199.844ZM1012.191,4166.744C1007.559,4169.764 1006.239,4175.944 1009.245,4180.584C1012.251,4185.204 1018.443,4186.524 1023.077,4183.524L1012.191,4166.744ZM1048.469,4166.744C1053.049,4163.644 1054.259,4157.444 1051.171,4152.864C1048.085,4148.284 1041.871,4147.064 1037.291,4150.144L1048.469,4166.744ZM1061.963,4133.204C1057.439,4136.364 1056.343,4142.604 1059.513,4147.124C1062.681,4151.644 1068.917,4152.744 1073.441,4149.584L1061.963,4133.204ZM1098.279,4131.824C1102.741,4128.564 1103.717,4122.304 1100.461,4117.844C1097.207,4113.384 1090.951,4112.404 1086.489,4115.664L1098.279,4131.824ZM1110.421,4097.824C1106.027,4101.164 1105.173,4107.444 1108.517,4111.844C1111.861,4116.244 1118.135,4117.084 1122.529,4113.744L1110.421,4097.824ZM1146.701,4094.964C1151.025,4091.524 1151.747,4085.224 1148.311,4080.904C1144.875,4076.584 1138.585,4075.864 1134.261,4079.304L1146.701,4094.964ZM1157.443,4060.464C1153.195,4064.004 1152.613,4070.304 1156.143,4074.544C1159.673,4078.804 1165.977,4079.384 1170.225,4075.844L1157.443,4060.464ZM1193.517,4056.044C1197.683,4052.404 1198.117,4046.084 1194.489,4041.924C1190.861,4037.764 1184.545,4037.324 1180.381,4040.964L1193.517,4056.044ZM1202.675,4021.064C1198.601,4024.784 1198.319,4031.104 1202.049,4035.184C1205.777,4039.264 1212.101,4039.544 1216.177,4035.804L1202.675,4021.064ZM1238.457,4014.884C1242.433,4011.064 1242.549,4004.724 1238.715,4000.744C1234.883,3996.764 1228.553,3996.664 1224.575,4000.484L1238.457,4014.884ZM1245.807,3979.464C1241.937,3983.404 1241.995,3989.724 1245.935,3993.604C1249.875,3997.464 1256.207,3997.424 1260.077,3993.484L1245.807,3979.464ZM1281.177,3971.364C1284.929,3967.304 1284.687,3960.984 1280.635,3957.224C1276.585,3953.464 1270.257,3953.724 1266.503,3957.764L1281.177,3971.364ZM1286.455,3935.564C1282.829,3939.724 1283.267,3946.044 1287.433,3949.664C1291.599,3953.284 1297.915,3952.844 1301.541,3948.684L1286.455,3935.564ZM1321.251,3925.284C1324.737,3921.004 1324.091,3914.704 1319.807,3911.204C1315.525,3907.724 1309.225,3908.364 1305.739,3912.644L1321.251,3925.284ZM1324.149,3889.224C1320.815,3893.624 1321.681,3899.884 1326.085,3903.224C1330.487,3906.564 1336.759,3905.684 1340.093,3901.284L1324.149,3889.224ZM1358.145,3876.504C1361.311,3871.984 1360.209,3865.744 1355.683,3862.584C1351.157,3859.404 1344.923,3860.504 1341.757,3865.044L1358.145,3876.504ZM1358.313,3840.364C1355.329,3845.004 1356.679,3851.184 1361.327,3854.164C1365.975,3857.164 1372.161,3855.804 1375.143,3851.164L1358.313,3840.364ZM1391.197,3824.944C1393.979,3820.164 1392.365,3814.044 1387.595,3811.264C1382.823,3808.484 1376.701,3810.104 1373.919,3814.864L1391.197,3824.944ZM1388.263,3788.944C1385.701,3793.844 1387.587,3799.884 1392.479,3802.444C1397.371,3805.004 1403.415,3803.124 1405.979,3798.224L1388.263,3788.944ZM1419.627,3770.584C1421.951,3765.584 1419.771,3759.644 1414.761,3757.304C1409.751,3754.984 1403.805,3757.164 1401.483,3762.184L1419.627,3770.584ZM1413.253,3735.024C1411.187,3740.144 1413.667,3745.964 1418.789,3748.024C1423.911,3750.104 1429.737,3747.624 1431.803,3742.504L1413.253,3735.024ZM1442.559,3713.604C1444.345,3708.384 1441.555,3702.704 1436.329,3700.904C1431.101,3699.124 1425.417,3701.924 1423.633,3707.144L1442.559,3713.604ZM1432.413,3678.864C1430.925,3684.184 1434.031,3689.704 1439.351,3691.204C1444.669,3692.684 1450.187,3689.584 1451.673,3684.264L1432.413,3678.864ZM1459.097,3654.364C1460.267,3648.964 1456.841,3643.624 1451.443,3642.464C1446.047,3641.284 1440.721,3644.724 1439.551,3650.124L1459.097,3654.364ZM1444.943,3621.024C1444.103,3626.484 1447.847,3631.604 1453.305,3632.444C1458.763,3633.284 1463.869,3629.524 1464.709,3624.084L1444.943,3621.024ZM1468.449,3593.444C1468.947,3587.944 1464.891,3583.084 1459.391,3582.584C1453.891,3582.084 1449.029,3586.144 1448.531,3591.644L1468.449,3593.444ZM1450.259,3562.184C1450.111,3567.704 1454.465,3572.304 1459.987,3572.444C1465.507,3572.604 1470.103,3568.244 1470.253,3562.724L1450.259,3562.184ZM1470.099,3531.804C1469.897,3526.284 1465.259,3521.984 1459.739,3522.184C1454.219,3522.384 1449.911,3527.024 1450.113,3532.544L1470.099,3531.804ZM1448.103,3503.144C1448.651,3508.624 1453.551,3512.644 1459.047,3512.084C1464.543,3511.544 1468.553,3506.644 1468.003,3501.144L1448.103,3503.144ZM1463.977,3470.544C1463.087,3465.084 1457.949,3461.384 1452.497,3462.284C1447.047,3463.164 1443.349,3468.304 1444.237,3473.764L1463.977,3470.544ZM1438.599,3444.744C1439.815,3450.144 1445.167,3453.524 1450.555,3452.304C1455.943,3451.084 1459.325,3445.744 1458.109,3440.344L1438.599,3444.744ZM1450.465,3410.544C1448.941,3405.244 1443.401,3402.164 1438.093,3403.704C1432.785,3405.224 1429.719,3410.764 1431.243,3416.064L1450.465,3410.544ZM1422.253,3387.784C1424.071,3393.004 1429.771,3395.764 1434.987,3393.944C1440.203,3392.124 1442.957,3386.424 1441.139,3381.204L1422.253,3387.784ZM1430.285,3352.524C1428.197,3347.424 1422.359,3344.964 1417.245,3347.064C1412.133,3349.144 1409.683,3354.984 1411.771,3360.104L1430.285,3352.524ZM1399.827,3332.844C1402.167,3337.844 1408.119,3340.004 1413.121,3337.664C1418.123,3335.324 1420.281,3329.364 1417.941,3324.364L1399.827,3332.844ZM1404.319,3296.944C1401.747,3292.064 1395.701,3290.184 1390.813,3292.744C1385.925,3295.324 1384.047,3301.364 1386.617,3306.264L1404.319,3296.944ZM1372.185,3280.224C1374.967,3285.004 1381.089,3286.604 1385.861,3283.824C1390.631,3281.044 1392.243,3274.924 1389.461,3270.164L1372.185,3280.224ZM1373.449,3243.964C1370.473,3239.304 1364.289,3237.944 1359.637,3240.924C1354.985,3243.904 1353.625,3250.084 1356.601,3254.744L1373.449,3243.964ZM1340.155,3230.084C1343.305,3234.624 1349.535,3235.744 1354.071,3232.584C1358.609,3229.444 1359.733,3223.204 1356.583,3218.684L1340.155,3230.084ZM1338.447,3193.544C1335.137,3189.124 1328.869,3188.224 1324.449,3191.544C1320.029,3194.864 1319.131,3201.124 1322.443,3205.544L1338.447,3193.544ZM1304.429,3182.324C1307.883,3186.624 1314.177,3187.324 1318.487,3183.864C1322.795,3180.404 1323.489,3174.124 1320.033,3169.804L1304.429,3182.324ZM1300.327,3146.004C1296.739,3141.804 1290.427,3141.304 1286.229,3144.904C1282.031,3148.484 1281.535,3154.804 1285.123,3159.004L1300.327,3146.004ZM1265.533,3136.744C1269.239,3140.824 1275.563,3141.144 1279.657,3137.444C1283.751,3133.724 1284.065,3127.404 1280.359,3123.324L1265.533,3136.744ZM1259.647,3101.064C1255.831,3097.064 1249.501,3096.924 1245.509,3100.744C1241.515,3104.564 1241.373,3110.884 1245.189,3114.884L1259.647,3101.064ZM1223.823,3093.104C1227.741,3096.984 1234.073,3096.964 1237.965,3093.064C1241.859,3089.144 1241.839,3082.804 1237.921,3078.904L1223.823,3093.104ZM1216.523,3058.144C1212.515,3054.344 1206.185,3054.504 1202.385,3058.524C1198.585,3062.524 1198.751,3068.844 1202.759,3072.664L1216.523,3058.144ZM1180.657,3052.164C1184.749,3055.864 1191.073,3055.564 1194.783,3051.464C1198.493,3047.384 1198.185,3041.064 1194.095,3037.344L1180.657,3052.164ZM1171.109,3016.944C1166.939,3013.324 1160.623,3013.764 1157.001,3017.924C1153.377,3022.104 1153.819,3028.404 1157.989,3032.044L1171.109,3016.944ZM1135.535,3012.904C1139.773,3016.444 1146.079,3015.884 1149.621,3011.644C1153.163,3007.404 1152.599,3001.104 1148.361,2997.564L1135.535,3012.904ZM1124.697,2978.144C1120.395,2974.684 1114.099,2975.364 1110.637,2979.684C1107.175,2983.984 1107.857,2990.264 1112.159,2993.744L1124.697,2978.144ZM1088.313,2974.904C1092.677,2978.284 1098.959,2977.484 1102.345,2973.124C1105.731,2968.764 1104.937,2962.484 1100.575,2959.104L1088.313,2974.904ZM1076.877,2941.024C1072.459,2937.704 1066.191,2938.604 1062.875,2943.004C1059.561,2947.424 1060.455,2953.704 1064.873,2957.004L1076.877,2941.024ZM1040.611,2939.104C1045.079,2942.344 1051.333,2941.364 1054.579,2936.884C1057.823,2932.424 1056.831,2926.164 1052.361,2922.924L1040.611,2939.104ZM1027.061,2904.844C1022.543,2901.664 1016.305,2902.764 1013.129,2907.284C1009.951,2911.804 1011.039,2918.024 1015.557,2921.204L1027.061,2904.844ZM991.447,2904.504C996.007,2907.624 1002.229,2906.444 1005.343,2901.884C1008.459,2897.324 1007.285,2891.104 1002.725,2887.984L991.447,2904.504ZM977.663,2871.124C973.061,2868.064 966.855,2869.324 963.801,2873.924C960.747,2878.524 962.003,2884.724 966.605,2887.784L977.663,2871.124ZM941.025,2871.044C945.667,2874.044 951.855,2872.704 954.849,2868.064C957.843,2863.424 956.507,2857.244 951.867,2854.244L941.025,2871.044ZM926.309,2837.984C921.633,2835.044 915.461,2836.444 912.523,2841.124C909.585,2845.804 910.995,2851.984 915.673,2854.924L926.309,2837.984ZM890.489,2839.304C895.199,2842.184 901.355,2840.704 904.239,2835.984C907.123,2831.284 905.643,2825.124 900.933,2822.244L890.489,2839.304ZM874.905,2806.504C870.163,2803.664 864.023,2805.224 861.191,2809.964C858.361,2814.704 859.909,2820.844 864.649,2823.664L874.905,2806.504ZM838.151,2808.044C842.923,2810.824 849.045,2809.204 851.827,2804.444C854.607,2799.664 852.993,2793.544 848.221,2790.764L838.151,2808.044ZM822.335,2775.844C817.537,2773.124 811.431,2774.784 808.697,2779.584C805.965,2784.384 807.639,2790.504 812.439,2793.224L822.335,2775.844ZM786.511,2778.624C791.337,2781.324 797.427,2779.584 800.113,2774.764C802.801,2769.944 801.067,2763.844 796.243,2761.164L786.511,2778.624ZM769.565,2746.464C764.715,2743.824 758.641,2745.604 755.999,2750.464C753.357,2755.304 755.147,2761.384 759.997,2764.024L769.565,2746.464ZM732.893,2749.424C737.767,2752.024 743.823,2750.184 746.421,2745.304C749.019,2740.424 747.173,2734.364 742.299,2731.784L732.893,2749.424ZM715.881,2717.844C710.985,2715.284 704.945,2717.184 702.387,2722.064C699.831,2726.964 701.727,2733.004 706.623,2735.564L715.881,2717.844ZM680.211,2721.904C685.127,2724.424 691.153,2722.484 693.669,2717.564C696.185,2712.644 694.241,2706.624 689.325,2704.104L680.211,2721.904ZM662.245,2690.384C657.309,2687.904 651.299,2689.904 648.821,2694.824C646.343,2699.764 648.337,2705.784 653.273,2708.264L662.245,2690.384ZM625.805,2694.604C630.759,2697.044 636.753,2695.004 639.193,2690.044C641.633,2685.084 639.593,2679.104 634.637,2676.664L625.805,2694.604ZM606.879,2662.984C601.941,2660.524 595.933,2662.504 593.455,2667.444C590.979,2672.384 592.973,2678.384 597.909,2680.864L606.879,2662.984ZM570.537,2666.744C575.415,2669.324 581.469,2667.484 584.059,2662.604C586.649,2657.724 584.793,2651.664 579.915,2649.084L570.537,2666.744ZM553.687,2634.764C548.871,2632.044 542.775,2633.764 540.071,2638.584C537.367,2643.404 539.081,2649.484 543.895,2652.204L553.687,2634.764ZM517.979,2637.244C522.729,2640.064 528.865,2638.484 531.681,2633.744C534.499,2628.984 532.933,2622.864 528.183,2620.044L517.979,2637.244ZM503.115,2604.764C498.435,2601.824 492.265,2603.244 489.331,2607.924C486.399,2612.604 487.815,2618.764 492.495,2621.704L503.115,2604.764ZM466.547,2604.964C471.149,2608.024 477.355,2606.764 480.409,2602.164C483.461,2597.564 482.205,2591.364 477.603,2588.304L466.547,2604.964ZM452.885,2571.444C448.365,2568.264 442.127,2569.364 438.955,2573.884C435.781,2578.404 436.873,2584.624 441.393,2587.804L452.885,2571.444ZM417.025,2570.204C421.459,2573.504 427.723,2572.584 431.017,2568.144C434.309,2563.704 433.385,2557.444 428.951,2554.144L417.025,2570.204ZM405.645,2536.344C401.303,2532.944 395.015,2533.704 391.603,2538.044C388.191,2542.384 388.947,2548.664 393.289,2552.084L405.645,2536.344ZM369.333,2532.704C373.575,2536.244 379.881,2535.664 383.417,2531.424C386.951,2527.164 386.377,2520.864 382.133,2517.324L369.333,2532.704ZM359.459,2497.884C355.319,2494.224 348.999,2494.624 345.343,2498.764C341.689,2502.904 342.081,2509.224 346.221,2512.884L359.459,2497.884ZM323.945,2492.624C327.977,2496.404 334.305,2496.184 338.079,2492.164C341.853,2488.124 341.645,2481.804 337.613,2478.024L323.945,2492.624ZM316.371,2457.544C312.453,2453.644 306.121,2453.664 302.229,2457.584C298.337,2461.504 298.359,2467.844 302.277,2471.724L316.371,2457.544ZM280.845,2449.784C284.643,2453.804 290.973,2453.964 294.983,2450.164C298.991,2446.364 299.163,2440.044 295.367,2436.024L280.845,2449.784ZM275.225,2414.104C271.553,2409.984 265.231,2409.624 261.107,2413.284C256.983,2416.964 256.617,2423.284 260.291,2427.404L275.225,2414.104ZM240.603,2404.604C244.147,2408.844 250.455,2409.404 254.689,2405.864C258.925,2402.304 259.483,2396.004 255.939,2391.764L240.603,2404.604ZM237.211,2368.684C233.799,2364.344 227.513,2363.584 223.169,2367.004C218.827,2370.404 218.073,2376.684 221.483,2381.044L237.211,2368.684ZM203.009,2356.744C206.282,2361.184 212.543,2362.144 216.991,2358.864C221.439,2355.604 222.391,2349.344 219.117,2344.884L203.009,2356.744ZM201.891,2320.704C198.758,2316.144 192.531,2315.004 187.983,2318.144C183.435,2321.264 182.287,2327.504 185.42,2332.044L201.891,2320.704ZM168.707,2306.944C171.697,2311.604 177.885,2312.944 182.528,2309.944C187.172,2306.964 188.512,2300.764 185.522,2296.124L168.707,2306.944ZM169.747,2270.764C166.904,2266.024 160.761,2264.484 156.026,2267.344C151.291,2270.184 149.758,2276.324 152.6,2281.064L169.747,2270.764ZM137.358,2254.744C140.052,2259.564 146.145,2261.304 150.966,2258.604C155.787,2255.904 157.511,2249.804 154.817,2244.984L137.358,2254.744ZM140.739,2218.864C138.195,2213.964 132.158,2212.044 127.257,2214.604C122.355,2217.144 120.444,2223.184 122.989,2228.084L140.739,2218.864ZM109.438,2200.964C111.832,2205.944 117.807,2208.044 122.784,2205.644C127.761,2203.244 129.855,2197.284 127.461,2192.304L109.438,2200.964ZM114.956,2165.264C112.713,2160.224 106.803,2157.944 101.756,2160.184C96.709,2162.424 94.436,2168.344 96.679,2173.384L114.956,2165.264ZM84.77,2145.464C86.862,2150.584 92.701,2153.024 97.812,2150.944C102.924,2148.844 105.372,2143.004 103.28,2137.904L84.77,2145.464ZM92.423,2110.204C90.482,2105.044 84.717,2102.424 79.546,2104.364C74.376,2106.304 71.758,2112.064 73.699,2117.244L92.423,2110.204ZM63.451,2088.704C65.243,2093.924 70.931,2096.704 76.155,2094.924C81.379,2093.124 84.161,2087.444 82.369,2082.224L63.451,2088.704ZM73.109,2053.924C71.465,2048.644 65.858,2045.704 60.585,2047.364C55.313,2049.004 52.372,2054.604 54.016,2059.884L73.109,2053.924ZM45.383,2030.784C46.881,2036.104 52.405,2039.204 57.72,2037.704C63.036,2036.204 66.131,2030.684 64.633,2025.364L45.383,2030.784ZM56.942,1996.584C55.587,1991.23 50.149,1987.986 44.795,1989.34C39.44,1990.696 36.198,1996.134 37.552,2001.488L56.942,1996.584ZM30.519,1972.054C31.732,1977.442 37.083,1980.826 42.471,1979.612C47.859,1978.4 51.244,1973.048 50.031,1967.66L30.519,1972.054ZM43.859,1938.502C42.785,1933.084 37.523,1929.564 32.105,1930.638C26.688,1931.712 23.167,1936.974 24.241,1942.392L43.859,1938.502ZM18.707,1912.516C19.645,1917.958 24.818,1921.61 30.26,1920.672C35.703,1919.734 39.355,1914.562 38.417,1909.12L18.707,1912.516ZM33.724,1879.752C32.918,1874.288 27.836,1870.512 22.372,1871.316C16.908,1872.122 13.132,1877.204 13.937,1882.668L33.724,1879.752ZM9.882,1852.69C10.558,1858.17 15.549,1862.066 21.03,1861.39C26.512,1860.714 30.408,1855.724 29.732,1850.242L9.882,1852.69ZM26.421,1820.552C25.872,1815.056 20.972,1811.046 15.477,1811.596C9.981,1812.144 5.971,1817.044 6.52,1822.54L26.421,1820.552ZM3.846,1792.316C4.271,1797.822 9.08,1801.942 14.586,1801.518C20.093,1801.092 24.212,1796.284 23.787,1790.776L3.846,1792.316ZM21.822,1761.106C21.516,1755.592 16.799,1751.37 11.284,1751.674C5.77,1751.98 1.547,1756.698 1.852,1762.212L21.822,1761.106ZM0.501,1731.978C0.69,1737.498 5.317,1741.82 10.836,1741.632C16.356,1741.444 20.678,1736.816 20.49,1731.296L0.501,1731.978ZM19.78,1701.362C19.706,1695.84 15.169,1691.422 9.646,1691.496C4.124,1691.57 -0.293,1696.108 -0.218,1701.63L19.78,1701.362ZM-0.32,1671.406C-0.357,1676.928 4.091,1681.434 9.614,1681.472C15.136,1681.508 19.643,1677.06 19.68,1671.538L-0.32,1671.406ZM20.167,1641.746C20.311,1636.224 15.952,1631.632 10.431,1631.488C4.91,1631.344 0.318,1635.704 0.174,1641.224L20.167,1641.746ZM1.251,1610.968C1.002,1616.484 5.274,1621.158 10.791,1621.408C16.308,1621.656 20.982,1617.384 21.231,1611.868L1.251,1610.968ZM22.859,1581.914C23.21,1576.404 19.026,1571.65 13.514,1571.3C8.003,1570.95 3.25,1575.134 2.9,1580.644L22.859,1581.914ZM5.082,1550.598C4.633,1556.104 8.731,1560.93 14.236,1561.378C19.74,1561.828 24.567,1557.73 25.016,1552.226L5.082,1550.598ZM27.704,1522.494C28.249,1516.998 24.236,1512.102 18.74,1511.556C13.244,1511.012 8.347,1515.024 7.802,1520.52L27.704,1522.494ZM11.048,1490.414C10.409,1495.9 14.339,1500.864 19.825,1501.504C25.31,1502.142 30.275,1498.212 30.914,1492.728L11.048,1490.414ZM34.625,1463.012C35.354,1457.538 31.508,1452.508 26.034,1451.78C20.559,1451.05 15.53,1454.896 14.8,1460.37L34.625,1463.012ZM19.025,1430.524C18.207,1435.986 21.971,1441.076 27.433,1441.894C32.895,1442.712 37.986,1438.946 38.804,1433.486L19.025,1430.524ZM43.465,1403.956C44.369,1398.508 40.685,1393.358 35.237,1392.454C29.789,1391.55 24.639,1395.234 23.735,1400.682L43.465,1403.956ZM28.921,1370.858C27.933,1376.292 31.537,1381.498 36.971,1382.486C42.405,1383.474 47.61,1379.87 48.598,1374.436L28.921,1370.858ZM54.171,1345.048C55.241,1339.63 51.715,1334.372 46.297,1333.302C40.879,1332.232 35.619,1335.758 34.55,1341.176L54.171,1345.048ZM40.611,1311.622C39.462,1317.024 42.909,1322.336 48.311,1323.484C53.713,1324.634 59.024,1321.186 60.173,1315.784L40.611,1311.622ZM66.61,1286.564C67.837,1281.178 64.467,1275.818 59.082,1274.592C53.697,1273.364 48.337,1276.736 47.11,1282.12L66.61,1286.564ZM54.038,1252.678C52.735,1258.046 56.03,1263.452 61.397,1264.756C66.764,1266.058 72.171,1262.764 73.474,1257.396L54.038,1252.678ZM80.731,1228.382C82.108,1223.034 78.888,1217.582 73.54,1216.204C68.191,1214.828 62.739,1218.046 61.362,1223.396L80.731,1228.382ZM69.087,1194.216C67.637,1199.546 70.783,1205.04 76.112,1206.49C81.441,1207.94 86.936,1204.794 88.386,1199.466L69.087,1194.216ZM96.434,1170.636C97.954,1165.328 94.882,1159.79 89.573,1158.27C84.264,1156.75 78.727,1159.822 77.207,1165.13L96.434,1170.636ZM85.712,1136.15C84.122,1141.438 87.121,1147.014 92.41,1148.604C97.699,1150.194 103.275,1147.196 104.865,1141.906L85.712,1136.15ZM113.67,1113.288C115.328,1108.02 112.401,1102.404 107.133,1100.746C101.865,1099.088 96.251,1102.016 94.593,1107.284L113.67,1113.288ZM103.839,1078.544C102.114,1083.79 104.969,1089.442 110.216,1091.166C115.463,1092.89 121.114,1090.036 122.839,1084.79L103.839,1078.544ZM132.361,1056.424C134.152,1051.198 131.368,1045.512 126.143,1043.722C120.918,1041.932 115.232,1044.716 113.441,1049.94L132.361,1056.424ZM123.4,1021.454C121.545,1026.656 124.259,1032.376 129.461,1034.232C134.663,1036.086 140.384,1033.372 142.238,1028.17L123.4,1021.454ZM152.482,999.988C154.401,994.808 151.757,989.054 146.578,987.136C141.399,985.218 135.646,987.862 133.728,993.04L152.482,999.988ZM144.384,964.798C142.403,969.954 144.976,975.738 150.132,977.72C155.287,979.7 161.072,977.126 163.053,971.972L144.384,964.798ZM173.941,944.134C175.983,939.002 173.479,933.186 168.348,931.144C163.217,929.102 157.401,931.606 155.359,936.738L173.941,944.134ZM166.692,908.748C164.589,913.856 167.024,919.7 172.13,921.804C177.237,923.906 183.082,921.472 185.185,916.366L166.692,908.748ZM196.779,888.682C198.943,883.6 196.577,877.726 191.496,875.564C186.414,873.4 180.541,875.766 178.378,880.846L196.779,888.682ZM190.357,853.164C188.134,858.22 190.43,864.12 195.486,866.342C200.542,868.566 206.442,866.27 208.665,861.214L190.357,853.164ZM220.833,833.974C223.115,828.944 220.887,823.018 215.857,820.736C210.829,818.454 204.901,820.682 202.619,825.71L220.833,833.974ZM215.291,798.21C212.951,803.212 215.107,809.166 220.111,811.506C225.113,813.846 231.065,811.688 233.405,806.686L215.291,798.21ZM246.283,779.574C248.683,774.6 246.593,768.622 241.619,766.224C236.645,763.824 230.667,765.914 228.269,770.888L246.283,779.574ZM241.505,743.838C239.049,748.784 241.069,754.784 246.015,757.242C250.961,759.698 256.963,757.678 259.419,752.732L241.505,743.838ZM272.829,726.118C275.343,721.2 273.393,715.176 268.475,712.662C263.559,710.148 257.535,712.096 255.021,717.014L272.829,726.118ZM269.009,690.042C266.437,694.93 268.315,700.976 273.203,703.548C278.091,706.12 284.137,704.242 286.709,699.354L269.009,690.042ZM300.823,672.908C303.451,668.052 301.645,661.982 296.789,659.354C291.931,656.724 285.863,658.53 283.233,663.388L300.823,672.908ZM297.683,637.066C294.997,641.89 296.731,647.98 301.557,650.666C306.383,653.352 312.473,651.618 315.159,646.792L297.683,637.066ZM329.891,620.696C332.635,615.904 330.973,609.794 326.181,607.05C321.387,604.306 315.277,605.968 312.533,610.76L329.891,620.696ZM327.775,584.508C324.973,589.268 326.559,595.398 331.319,598.2C336.077,601.002 342.207,599.414 345.009,594.656L327.775,584.508ZM360.327,569.002C363.187,564.278 361.675,558.128 356.951,555.268C352.227,552.408 346.077,553.92 343.217,558.644L360.327,569.002ZM358.847,533.182C355.929,537.87 357.365,544.038 362.053,546.956C366.741,549.874 372.909,548.438 375.827,543.75L358.847,533.182ZM391.991,518.146C394.971,513.496 393.615,507.31 388.963,504.332C384.313,501.354 378.127,502.71 375.149,507.36L391.991,518.146ZM391.629,481.99C388.591,486.602 389.867,492.804 394.479,495.842C399.089,498.88 405.291,497.604 408.331,492.994L391.629,481.99ZM424.825,468.312C427.925,463.74 426.731,457.522 422.159,454.422C417.589,451.324 411.369,452.518 408.271,457.088L424.825,468.312ZM425.439,432.132C422.279,436.66 423.387,442.894 427.915,446.054C432.443,449.216 438.677,448.108 441.839,443.578L425.439,432.132ZM459.257,418.996C462.481,414.512 461.461,408.264 456.977,405.038C452.495,401.814 446.245,402.834 443.021,407.318L459.257,418.996ZM460.733,383.06C457.443,387.498 458.373,393.76 462.811,397.05C467.247,400.338 473.511,399.408 476.799,394.972L460.733,383.06ZM494.697,371.2C498.053,366.812 497.215,360.536 492.829,357.182C488.441,353.826 482.165,354.664 478.811,359.05L494.697,371.2ZM497.573,334.908C494.149,339.242 494.887,345.53 499.221,348.954C503.555,352.378 509.843,351.64 513.267,347.308L497.573,334.908ZM531.921,324.084C535.415,319.806 534.779,313.506 530.501,310.012C526.225,306.52 519.925,307.154 516.431,311.432L531.921,324.084ZM535.537,288.434C531.973,292.652 532.501,298.962 536.719,302.526C540.937,306.092 547.247,305.564 550.811,301.346L535.537,288.434ZM570.615,278.342C574.257,274.19 573.843,267.872 569.691,264.23C565.539,260.588 559.221,261.002 555.579,265.154L570.615,278.342ZM575.669,242.678C571.949,246.76 572.243,253.086 576.325,256.806C580.409,260.526 586.733,260.232 590.453,256.15L575.669,242.678ZM610.549,234.528C614.351,230.522 614.183,224.192 610.177,220.392C606.169,216.59 599.839,216.758 596.039,220.764L610.549,234.528ZM617.469,198.658C613.581,202.581 613.609,208.912 617.531,212.8C621.453,216.688 627.785,216.662 631.673,212.738L617.469,198.658ZM652.759,191.946C656.737,188.115 656.857,181.784 653.025,177.806C649.195,173.829 642.863,173.71 638.885,177.541L652.759,191.946ZM660.911,156.849C656.837,160.579 656.559,166.904 660.289,170.977C664.019,175.05 670.345,175.329 674.417,171.599L660.911,156.849ZM696.923,151.553C701.099,147.939 701.555,141.624 697.941,137.448C694.325,133.272 688.011,132.817 683.835,136.431L696.923,151.553ZM706.663,117.252C702.381,120.74 701.737,127.038 705.225,131.32C708.713,135.603 715.013,136.246 719.295,132.758L706.663,117.252ZM743.035,114.079C747.435,110.741 748.295,104.468 744.957,100.068C741.617,95.668 735.345,94.808 730.945,98.147L743.035,114.079ZM755.437,80.27C750.913,83.439 749.817,89.675 752.985,94.198C756.155,98.722 762.389,99.819 766.913,96.65L755.437,80.27ZM791.455,80.217C796.111,77.246 797.477,71.064 794.505,66.408C791.535,61.752 785.353,60.386 780.697,63.357L791.455,80.217ZM807.063,47.43C802.263,50.163 800.587,56.269 803.321,61.068C806.053,65.867 812.159,67.543 816.959,64.81L807.063,47.43ZM842.631,51.128C847.579,48.675 849.603,42.676 847.149,37.727C844.697,32.779 838.697,30.755 833.749,33.208L842.631,51.128ZM862.119,20.327C857.011,22.428 854.573,28.272 856.675,33.38C858.775,38.487 864.619,40.925 869.727,38.824L862.119,20.327ZM896.863,28.901C902.127,27.225 905.033,21.601 903.359,16.338C901.683,11.076 896.057,8.168 890.795,9.844L896.863,28.901ZM921.023,1.826C915.617,2.961 912.157,8.263 913.291,13.668C914.427,19.073 919.729,22.534 925.133,21.399L921.023,1.826ZM397.181,4464.284L410.527,4459.044L403.209,4440.424L389.863,4445.684L397.181,4464.284ZM437.219,4448.544L463.911,4438.044L456.591,4419.444L429.901,4429.924L437.219,4448.544ZM490.601,4427.564L517.293,4417.064L509.975,4398.444L483.283,4408.944L490.601,4427.564ZM543.985,4406.564L570.677,4396.064L563.357,4377.464L536.667,4387.964L543.985,4406.564ZM597.367,4385.584L624.059,4375.084L616.741,4356.464L590.049,4366.964L597.367,4385.584ZM650.751,4364.584L677.443,4354.104L670.125,4335.484L643.433,4345.984L650.751,4364.584ZM704.133,4343.604L730.825,4333.104L723.507,4314.484L696.815,4324.984L704.133,4343.604ZM757.517,4322.604L784.209,4312.124L776.891,4293.504L750.199,4304.004L757.517,4322.604ZM810.901,4301.624L824.245,4296.364L816.927,4277.764L803.581,4283.004L810.901,4301.624ZM825.047,4296.024C829.601,4293.744 834.145,4291.464 838.673,4289.164L829.633,4271.324C825.145,4273.604 820.643,4275.864 816.127,4278.124L825.047,4296.024ZM865.685,4275.244C874.647,4270.544 883.553,4265.804 892.399,4261.004L882.863,4243.424C874.101,4248.164 865.277,4252.884 856.397,4257.544L865.685,4275.244ZM919.077,4246.284C927.907,4241.324 936.671,4236.304 945.369,4231.244L935.313,4213.964C926.703,4218.964 918.027,4223.924 909.283,4228.844L919.077,4246.284ZM971.579,4215.724C980.277,4210.484 988.901,4205.184 997.449,4199.844L986.847,4182.884C978.393,4188.164 969.859,4193.404 961.253,4198.604L971.579,4215.724ZM1023.077,4183.524C1031.625,4177.984 1040.089,4172.384 1048.469,4166.744L1037.291,4150.144C1029.011,4155.724 1020.643,4161.264 1012.191,4166.744L1023.077,4183.524ZM1073.441,4149.584C1081.815,4143.704 1090.097,4137.784 1098.279,4131.824L1086.489,4115.664C1078.411,4121.564 1070.235,4127.404 1061.963,4133.204L1073.441,4149.584ZM1122.529,4113.744C1130.695,4107.544 1138.753,4101.284 1146.701,4094.964L1134.261,4079.304C1126.425,4085.524 1118.477,4091.704 1110.421,4097.824L1122.529,4113.744ZM1170.225,4075.844C1178.111,4069.304 1185.875,4062.684 1193.517,4056.044L1180.381,4040.964C1172.859,4047.504 1165.211,4054.004 1157.443,4060.464L1170.225,4075.844ZM1216.177,4035.804C1223.739,4028.884 1231.167,4021.924 1238.457,4014.884L1224.575,4000.484C1217.415,4007.404 1210.113,4014.244 1202.675,4021.064L1216.177,4035.804ZM1260.077,3993.484C1267.263,3986.164 1274.299,3978.784 1281.177,3971.364L1266.503,3957.764C1259.761,3965.044 1252.859,3972.284 1245.807,3979.464L1260.077,3993.484ZM1301.541,3948.684C1308.285,3940.944 1314.855,3933.144 1321.251,3925.284L1305.739,3912.644C1299.487,3920.344 1293.057,3927.964 1286.455,3935.564L1301.541,3948.684ZM1340.093,3901.284C1346.305,3893.084 1352.325,3884.824 1358.145,3876.504L1341.757,3865.044C1336.085,3873.144 1330.213,3881.204 1324.149,3889.224L1340.093,3901.284ZM1375.143,3851.164C1380.715,3842.484 1386.069,3833.744 1391.197,3824.944L1373.919,3814.864C1368.937,3823.404 1363.733,3831.904 1358.313,3840.364L1375.143,3851.164ZM1405.979,3798.224C1410.775,3789.084 1415.327,3779.864 1419.627,3770.584L1401.483,3762.184C1397.323,3771.144 1392.915,3780.084 1388.263,3788.944L1405.979,3798.224ZM1431.803,3742.504C1435.661,3732.924 1439.251,3723.304 1442.559,3713.604L1423.633,3707.144C1420.443,3716.484 1416.981,3725.784 1413.253,3735.024L1431.803,3742.504ZM1451.673,3684.264C1454.445,3674.344 1456.923,3664.384 1459.097,3654.364L1439.551,3650.124C1437.461,3659.744 1435.079,3669.324 1432.413,3678.864L1451.673,3684.264ZM1464.709,3624.084C1466.273,3613.924 1467.523,3603.704 1468.449,3593.444L1448.531,3591.644C1447.641,3601.484 1446.443,3611.284 1444.943,3621.024L1464.709,3624.084ZM1470.253,3562.724C1470.529,3552.464 1470.481,3542.164 1470.099,3531.804L1450.113,3532.544C1450.479,3542.464 1450.525,3552.344 1450.259,3562.184L1470.253,3562.724ZM1468.003,3501.144C1466.987,3490.984 1465.647,3480.784 1463.977,3470.544L1444.237,3473.764C1445.841,3483.584 1447.127,3493.384 1448.103,3503.144L1468.003,3501.144ZM1458.109,3440.344C1455.875,3430.444 1453.329,3420.504 1450.465,3410.544L1431.243,3416.064C1434.001,3425.664 1436.451,3435.224 1438.599,3444.744L1458.109,3440.344ZM1441.139,3381.204C1437.815,3371.664 1434.199,3362.104 1430.285,3352.524L1411.771,3360.104C1415.555,3369.364 1419.047,3378.584 1422.253,3387.784L1441.139,3381.204ZM1417.941,3324.364C1413.673,3315.244 1409.135,3306.104 1404.319,3296.944L1386.617,3306.264C1391.291,3315.144 1395.693,3324.004 1399.827,3332.844L1417.941,3324.364ZM1389.461,3270.164C1384.377,3261.444 1379.041,3252.704 1373.449,3243.964L1356.601,3254.744C1362.047,3263.264 1367.241,3271.764 1372.185,3280.224L1389.461,3270.164ZM1356.583,3218.684C1350.775,3210.304 1344.731,3201.944 1338.447,3193.544L1322.443,3205.544C1328.585,3213.744 1334.487,3221.924 1340.155,3230.084L1356.583,3218.684ZM1320.033,3169.804C1313.681,3161.884 1307.113,3153.944 1300.327,3146.004L1285.123,3159.004C1291.777,3166.784 1298.211,3174.564 1304.429,3182.324L1320.033,3169.804ZM1280.359,3123.324C1273.647,3115.904 1266.743,3108.484 1259.647,3101.064L1245.189,3114.884C1252.163,3122.184 1258.945,3129.464 1265.533,3136.744L1280.359,3123.324ZM1237.921,3078.904C1230.959,3072.004 1223.827,3065.064 1216.523,3058.144L1202.759,3072.664C1209.953,3079.484 1216.973,3086.284 1223.823,3093.104L1237.921,3078.904ZM1194.095,3037.344C1186.599,3030.544 1178.937,3023.744 1171.109,3016.944L1157.989,3032.044C1165.713,3038.744 1173.269,3045.464 1180.657,3052.164L1194.095,3037.344ZM1148.361,2997.564C1140.627,2991.084 1132.739,2984.624 1124.697,2978.144L1112.159,2993.744C1120.107,3000.124 1127.897,3006.524 1135.535,3012.904L1148.361,2997.564ZM1100.575,2959.104C1092.811,2953.064 1084.911,2947.044 1076.877,2941.024L1064.873,2957.004C1072.823,2962.984 1080.637,2968.944 1088.313,2974.904L1100.575,2959.104ZM1052.361,2922.924C1044.065,2916.904 1035.631,2910.884 1027.061,2904.844L1015.557,2921.204C1024.047,2927.184 1032.397,2933.144 1040.611,2939.104L1052.361,2922.924ZM1002.725,2887.984C994.491,2882.364 986.137,2876.744 977.663,2871.124L966.605,2887.784C975.007,2893.364 983.287,2898.924 991.447,2904.504L1002.725,2887.984ZM951.867,2854.244C943.463,2848.824 934.943,2843.404 926.309,2837.984L915.673,2854.924C924.239,2860.304 932.689,2865.664 941.025,2871.044L951.867,2854.244ZM900.933,2822.244C892.365,2817.004 883.689,2811.744 874.905,2806.504L864.649,2823.664C873.373,2828.884 881.985,2834.084 890.489,2839.304L900.933,2822.244ZM848.221,2790.764C839.691,2785.784 831.063,2780.824 822.335,2775.844L812.439,2793.224C821.109,2798.164 829.681,2803.104 838.151,2808.044L848.221,2790.764ZM796.243,2761.164C787.447,2756.264 778.555,2751.364 769.565,2746.464L759.997,2764.024C768.933,2768.904 777.771,2773.764 786.511,2778.624L796.243,2761.164ZM742.299,2731.784C733.583,2727.124 724.777,2722.484 715.881,2717.844L706.623,2735.564C715.469,2740.184 724.225,2744.804 732.893,2749.424L742.299,2731.784ZM689.325,2704.104C680.385,2699.524 671.359,2694.964 662.245,2690.384L653.273,2708.264C662.339,2712.804 671.319,2717.364 680.211,2721.904L689.325,2704.104ZM634.637,2676.664C629.993,2674.364 625.325,2672.084 620.637,2669.804L611.871,2687.784C616.539,2690.044 621.183,2692.324 625.805,2694.604L634.637,2676.664ZM620.637,2669.804C616.019,2667.544 611.433,2665.284 606.879,2662.984L597.909,2680.864C602.533,2683.184 607.187,2685.484 611.871,2687.784L620.637,2669.804ZM579.915,2649.084C571.051,2644.364 562.307,2639.604 553.687,2634.764L543.895,2652.204C552.655,2657.104 561.535,2661.964 570.537,2666.744L579.915,2649.084ZM528.183,2620.044C519.705,2615.004 511.349,2609.924 503.115,2604.764L492.495,2621.704C500.869,2626.944 509.363,2632.124 517.979,2637.244L528.183,2620.044ZM477.603,2588.304C469.233,2582.744 460.993,2577.124 452.885,2571.444L441.393,2587.804C449.645,2593.604 458.031,2599.324 466.547,2604.964L477.603,2588.304ZM428.951,2554.144C421.051,2548.284 413.283,2542.344 405.645,2536.344L393.289,2552.084C401.071,2558.184 408.983,2564.244 417.025,2570.204L428.951,2554.144ZM382.133,2517.324C374.435,2510.924 366.879,2504.444 359.459,2497.884L346.221,2512.884C353.785,2519.564 361.487,2526.164 369.333,2532.704L382.133,2517.324ZM337.613,2478.024C330.393,2471.264 323.313,2464.444 316.371,2457.544L302.277,2471.724C309.359,2478.764 316.581,2485.724 323.945,2492.624L337.613,2478.024ZM295.367,2436.024C288.509,2428.784 281.797,2421.484 275.225,2414.104L260.291,2427.404C266.997,2434.944 273.847,2442.404 280.845,2449.784L295.367,2436.024ZM255.939,2391.764C249.551,2384.144 243.309,2376.444 237.211,2368.684L221.483,2381.044C227.711,2388.964 234.083,2396.824 240.603,2404.604L255.939,2391.764ZM219.117,2344.884C213.231,2336.884 207.489,2328.824 201.891,2320.704L185.42,2332.044C191.137,2340.344 196.999,2348.584 203.009,2356.744L219.117,2344.884ZM185.522,2296.124C180.119,2287.744 174.861,2279.284 169.747,2270.764L152.6,2281.064C157.822,2289.744 163.19,2298.384 168.707,2306.944L185.522,2296.124ZM154.817,2244.984C149.983,2236.344 145.291,2227.624 140.739,2218.864L122.989,2228.084C127.634,2237.024 132.424,2245.924 137.358,2254.744L154.817,2244.984ZM127.461,2192.304C123.153,2183.344 118.985,2174.324 114.956,2165.264L96.679,2173.384C100.789,2182.644 105.042,2191.824 109.438,2200.964L127.461,2192.304ZM103.28,2137.904C99.525,2128.724 95.907,2119.484 92.423,2110.204L73.699,2117.244C77.251,2126.704 80.941,2136.104 84.77,2145.464L103.28,2137.904ZM82.369,2082.224C79.15,2072.824 76.065,2063.404 73.109,2053.924L54.016,2059.884C57.027,2069.544 60.171,2079.144 63.451,2088.704L82.369,2082.224ZM64.633,2025.364C61.942,2015.804 59.378,2006.218 56.942,1996.584L37.552,2001.488C40.033,2011.304 42.642,2021.064 45.383,2030.784L64.633,2025.364ZM50.031,1967.66C47.851,1957.98 45.794,1948.258 43.859,1938.502L24.241,1942.392C26.209,1952.316 28.301,1962.204 30.519,1972.054L50.031,1967.66ZM38.417,1909.12C36.735,1899.364 35.172,1889.574 33.724,1879.752L13.937,1882.668C15.409,1892.648 16.998,1902.598 18.707,1912.516L38.417,1909.12ZM29.732,1850.242C28.515,1840.374 27.412,1830.478 26.421,1820.552L6.52,1822.54C7.527,1832.616 8.647,1842.666 9.882,1852.69L29.732,1850.242ZM23.787,1790.776C23.025,1780.912 22.371,1771.02 21.822,1761.106L1.852,1762.212C2.409,1772.268 3.073,1782.304 3.846,1792.316L23.787,1790.776ZM20.49,1731.296C20.15,1721.338 19.914,1711.36 19.78,1701.362L-0.218,1701.63C-0.082,1711.764 0.157,1721.882 0.501,1731.978L20.49,1731.296ZM19.68,1671.538C19.745,1661.622 19.908,1651.692 20.167,1641.746L0.174,1641.224C-0.088,1651.298 -0.254,1661.36 -0.32,1671.406L19.68,1671.538ZM21.231,1611.868C21.68,1601.894 22.223,1591.91 22.859,1581.914L2.9,1580.644C2.256,1590.762 1.706,1600.87 1.251,1610.968L21.231,1611.868ZM25.016,1552.226C25.824,1542.322 26.72,1532.412 27.704,1522.494L7.802,1520.52C6.807,1530.552 5.9,1540.578 5.082,1550.598L25.016,1552.226ZM30.914,1492.728C32.067,1482.826 33.304,1472.92 34.625,1463.012L14.8,1460.37C13.465,1470.386 12.214,1480.402 11.048,1490.414L30.914,1492.728ZM38.804,1433.486C40.278,1423.642 41.832,1413.798 43.465,1403.956L23.735,1400.682C22.085,1410.626 20.514,1420.574 19.025,1430.524L38.804,1433.486ZM48.598,1374.436C50.38,1364.636 52.238,1354.84 54.171,1345.048L34.55,1341.176C32.598,1351.064 30.721,1360.958 28.921,1370.858L48.598,1374.436ZM60.173,1315.784C62.247,1306.036 64.393,1296.296 66.61,1286.564L47.11,1282.12C44.872,1291.944 42.705,1301.78 40.611,1311.622L60.173,1315.784ZM73.474,1257.396C75.824,1247.714 78.244,1238.042 80.731,1228.382L61.362,1223.396C58.853,1233.144 56.411,1242.906 54.038,1252.678L73.474,1257.396ZM88.386,1199.466C91.003,1189.84 93.687,1180.23 96.434,1170.636L77.207,1165.13C74.435,1174.81 71.728,1184.506 69.087,1194.216L88.386,1199.466ZM104.865,1141.906C107.738,1132.348 110.674,1122.808 113.67,1113.288L94.593,1107.284C91.571,1116.886 88.61,1126.508 85.712,1136.15L104.865,1141.906ZM122.839,1084.79C125.955,1075.312 129.129,1065.856 132.361,1056.424L113.441,1049.94C110.182,1059.45 106.981,1068.986 103.839,1078.544L122.839,1084.79ZM142.238,1028.17C145.598,1018.75 149.013,1009.354 152.482,999.988L133.728,993.04C130.23,1002.484 126.787,1011.956 123.4,1021.454L142.238,1028.17ZM163.053,971.972C166.63,962.662 170.26,953.382 173.941,944.134L155.359,936.738C151.648,946.06 147.99,955.414 144.384,964.798L163.053,971.972ZM185.185,916.366C189,907.102 192.865,897.874 196.779,888.682L178.378,880.846C174.433,890.112 170.537,899.412 166.692,908.748L185.185,916.366ZM208.665,861.214C212.675,852.096 216.731,843.014 220.833,833.974L202.619,825.71C198.486,834.822 194.398,843.974 190.357,853.164L208.665,861.214ZM233.405,806.686C237.655,797.604 241.947,788.568 246.283,779.574L228.269,770.888C223.899,779.95 219.573,789.058 215.291,798.21L233.405,806.686ZM259.419,752.732C263.849,743.814 268.319,734.94 272.829,726.118L255.021,717.014C250.475,725.906 245.969,734.848 241.505,743.838L259.419,752.732ZM286.709,699.354C291.375,690.484 296.081,681.668 300.823,672.908L283.233,663.388C278.455,672.218 273.711,681.102 269.009,690.042L286.709,699.354ZM315.159,646.792C320.033,638.034 324.945,629.336 329.891,620.696L312.533,610.76C307.549,619.468 302.597,628.238 297.683,637.066L315.159,646.792ZM345.009,594.656C350.083,586.04 355.189,577.488 360.327,569.002L343.217,558.644C338.037,567.2 332.889,575.822 327.775,584.508L345.009,594.656ZM375.827,543.75C381.185,535.142 386.575,526.606 391.991,518.146L375.149,507.36C369.685,515.892 364.251,524.5 358.847,533.182L375.827,543.75ZM408.331,492.994C413.803,484.686 419.303,476.458 424.825,468.312L408.271,457.088C402.699,465.308 397.151,473.61 391.629,481.99L408.331,492.994ZM441.839,443.578C447.623,435.294 453.429,427.098 459.257,418.996L443.021,407.318C437.137,415.498 431.277,423.77 425.439,432.132L441.839,443.578ZM476.799,394.972C482.747,386.948 488.715,379.022 494.697,371.2L478.811,359.05C472.767,366.954 466.739,374.958 460.733,383.06L476.799,394.972ZM513.267,347.308C519.471,339.454 525.691,331.712 531.921,324.084L516.431,311.432C510.131,319.144 503.845,326.972 497.573,334.908L513.267,347.308ZM550.811,301.346C557.405,293.546 564.007,285.876 570.615,278.342L555.579,265.154C548.891,272.782 542.209,280.542 535.537,288.434L550.811,301.346ZM590.453,256.15C597.151,248.798 603.851,241.59 610.549,234.528L596.039,220.764C589.247,227.926 582.455,235.232 575.669,242.678L590.453,256.15ZM631.673,212.738C638.709,205.64 645.739,198.708 652.759,191.946L638.885,177.541C631.751,184.412 624.611,191.453 617.469,198.658L631.673,212.738ZM674.417,171.599C681.939,164.712 689.443,158.029 696.923,151.553L683.835,136.431C676.207,143.032 668.565,149.84 660.911,156.849L674.417,171.599ZM719.295,132.758C727.243,126.285 735.159,120.056 743.035,114.079L730.945,98.147C722.879,104.268 714.783,110.638 706.663,117.252L719.295,132.758ZM766.913,96.65C775.149,90.881 783.331,85.4 791.455,80.217L780.697,63.357C772.319,68.702 763.897,74.343 755.437,80.27L766.913,96.65ZM816.959,64.81C825.601,59.889 834.161,55.325 842.631,51.128L833.749,33.208C824.917,37.585 816.019,42.33 807.063,47.43L816.959,64.81ZM869.727,38.824C878.907,35.048 887.957,31.737 896.863,28.901L890.795,9.844C881.335,12.857 871.771,16.357 862.119,20.327L869.727,38.824ZM925.133,21.399C929.755,20.428 934.329,19.598 938.853,18.91L935.847,-0.863C930.939,-0.116 925.997,0.781 921.023,1.826L925.133,21.399Z" transform="rotate(-289.848 735.037 2232.002)" fill="#FFBA47"/>
</svg>
